0
SECTION
2
HEADER
9
$INSUNITS
70
6
9
$ACADVER
1
AC1014
9
$HANDSEED
5
FFFF
0
ENDSEC
0
SECTION
2
TABLES
0
TABLE
2
VPORT
5
8
100
AcDbSymbolTable
0
ENDTAB
0
TABLE
2
LTYPE
5
5
100
AcDbSymbolTable
0
LTYPE
5
14
100
AcDbSymbolTableRecord
100
AcDbLinetypeTableRecord
2
BYBLOCK
70
0
0
LTYPE
5
15
100
AcDbSymbolTableRecord
100
AcDbLinetypeTableRecord
2
BYLAYER
70
0
0
ENDTAB
0
TABLE
2
LAYER
5
2
100
AcDbSymbolTable
70
2
0
LAYER
5
50
100
AcDbSymbolTableRecord
100
AcDbLayerTableRecord
2
0
70
0
6
CONTINUOUS
0
ENDTAB
0
TABLE
2
STYLE
5
3
100
AcDbSymbolTable
70
1
0
STYLE
5
11
100
AcDbSymbolTableRecord
100
AcDbTextStyleTableRecord
2
STANDARD
70
0
0
ENDTAB
0
TABLE
2
VIEW
5
6
100
AcDbSymbolTable
70
0
0
ENDTAB
0
TABLE
2
UCS
5
7
100
AcDbSymbolTable
70
0
0
ENDTAB
0
TABLE
2
APPID
5
9
100
AcDbSymbolTable
70
2
0
APPID
5
12
100
AcDbSymbolTableRecord
100
AcDbRegAppTableRecord
2
ACAD
70
0
0
ENDTAB
0
TABLE
2
DIMSTYLE
5
A
100
AcDbSymbolTable
70
1
0
ENDTAB
0
TABLE
2
BLOCK_RECORD
5
1
100
AcDbSymbolTable
70
1
0
BLOCK_RECORD
5
1F
100
AcDbSymbolTableRecord
100
AcDbBlockTableRecord
2
*MODEL_SPACE
0
BLOCK_RECORD
5
1B
100
AcDbSymbolTableRecord
100
AcDbBlockTableRecord
2
*PAPER_SPACE
0
ENDTAB
0
ENDSEC
0
SECTION
2
BLOCKS
0
BLOCK
5
20
100
AcDbEntity
100
AcDbBlockBegin
2
*MODEL_SPACE
0
ENDBLK
5
21
100
AcDbEntity
100
AcDbBlockEnd
0
BLOCK
5
1C
100
AcDbEntity
100
AcDbBlockBegin
2
*PAPER_SPACE
0
ENDBLK
5
1D
100
AcDbEntity
100
AcDbBlockEnd
0
ENDSEC
0
SECTION
2
ENTITIES
0
LINE
5
100
100
AcDbEntity
8
0
100
AcDbLine
10
0
20
0
30
0
11
0.24999999999999994
21
0
31
0
0
LINE
5
101
100
AcDbEntity
8
0
100
AcDbLine
10
0.24999999999999994
20
0
30
0
11
0.24999999999999994
21
0.25000000000000006
31
0
0
LINE
5
102
100
AcDbEntity
8
0
100
AcDbLine
10
0.24999999999999994
20
0.25000000000000006
30
0
11
-5.8170722959499296e-17
21
0.25
31
0
0
LINE
5
103
100
AcDbEntity
8
0
100
AcDbLine
10
-5.8170722959499296e-17
20
0.25
30
0
11
0
21
0
31
0
0
CIRCLE
5
104
100
AcDbEntity
8
0
100
AcDbCircle
10
0.027547481109798912
20
0.2254778093479495
30
0
40
0.0089999999999999993
210
0
220
0
230
1
0
CIRCLE
5
105
100
AcDbEntity
8
0
100
AcDbCircle
10
0.110003605033008
20
0.054722903936033927
30
0
40
0.0089999999999999993
210
0
220
0
230
1
0
CIRCLE
5
106
100
AcDbEntity
8
0
100
AcDbCircle
10
0.14658929676435939
20
0.050736663577092729
30
0
40
0.0089999999999999993
210
0
220
0
230
1
0
CIRCLE
5
107
100
AcDbEntity
8
0
100
AcDbCircle
10
0.02617435927033995
20
0.043508502490565606
30
0
40
0.0089999999999999993
210
0
220
0
230
1
0
CIRCLE
5
108
100
AcDbEntity
8
0
100
AcDbCircle
10
0.083013662680099631
20
0.16449991630723917
30
0
40
0.0089999999999999993
210
0
220
0
230
1
0
CIRCLE
5
109
100
AcDbEntity
8
0
100
AcDbCircle
10
0.14783370614954625
20
0.1774987775597078
30
0
40
0.0089999999999999993
210
0
220
0
230
1
0
CIRCLE
5
110
100
AcDbEntity
8
0
100
AcDbCircle
10
0.10931578501270738
20
0.17681095753940698
30
0
40
0.0089999999999999993
210
0
220
0
230
1
0
CIRCLE
5
111
100
AcDbEntity
8
0
100
AcDbCircle
10
-0.058001897151045569
20
0.21186673548683252
30
0
40
0.0089999999999999993
210
0
220
0
230
1
0
LINE
5
112
100
AcDbEntity
8
0
100
AcDbLine
10
0.009999999999999943
20
0.24000000000000007
30
0
11
0.23999999999999994
21
0.24000000000000007
31
0
0
LINE
5
113
100
AcDbEntity
8
0
100
AcDbLine
10
0.23999999999999994
20
0.24000000000000007
30
0
11
0.23999999999999991
21
0.010000000000000009
31
0
0
LINE
5
114
100
AcDbEntity
8
0
100
AcDbLine
10
0.23999999999999991
20
0.010000000000000009
30
0
11
0.009999999999999943
21
0.0099999999999999933
31
0
0
LINE
5
115
100
AcDbEntity
8
0
100
AcDbLine
10
0.009999999999999943
20
0.0099999999999999933
30
0
11
0.009999999999999943
21
0.24000000000000007
31
0
0
LWPOLYLINE
5
116
100
AcDbEntity
8
0
100
AcDbPolyline
90
7
70
1
43
0.0
10
0.16
20
0.21405517533565901
10
0.23999999999999994
20
0.21405517533565901
10
0.23999999999999994
20
0.20405517533565903
10
0.16999999999999993
20
0.20405517533565903
10
0.16999999999999993
20
0.18405517533565902
10
0.15999999999999998
20
0.18405517533565902
10
0.16000000000000003
20
0.20131691560764708
0
LWPOLYLINE
5
117
100
AcDbEntity
8
0
100
AcDbPolyline
90
4
70
1
43
0.0
10
0.1337980492788213
20
0.2400000000000001
10
0.12379804927882131
20
0.2400000000000001
10
0.12379804927882131
20
0.2148991862865082
10
0.1337980492788213
20
0.2148991862865082
0
LWPOLYLINE
5
118
100
AcDbEntity
8
0
100
AcDbPolyline
90
4
70
1
43
0.0
10
0.20621698988834625
20
0.15933077732123482
10
0.19621698988834624
20
0.15933077732123482
10
0.19621698988834624
20
0.13569847069745777
10
0.20621698988834625
20
0.13569847069745777
0
LWPOLYLINE
5
119
100
AcDbEntity
8
0
100
AcDbPolyline
90
4
70
1
43
0.0
10
0.12379804927882131
20
0.18739360789420167
10
0.12379804927882131
20
0.1637613012704246
10
0.1337980492788213
20
0.1637613012704246
10
0.1337980492788213
20
0.18739360789420167
0
LWPOLYLINE
5
120
100
AcDbEntity
8
0
100
AcDbPolyline
90
4
70
1
43
0.0
10
0.04238723664775218
20
0.20999999999999999
10
0.01
20
0.20999999999999999
10
0.01
20
0.20000000000000001
10
0.04238723664775218
20
0.20000000000000001
0
LWPOLYLINE
5
121
100
AcDbEntity
8
0
100
AcDbPolyline
90
4
70
1
43
0.0
10
0.095779945245754089
20
0.18708443615333933
10
0.095779945245754089
20
0.21071674277711641
10
0.085779945245754094
20
0.21071674277711641
10
0.085779945245754094
20
0.18708443615333933
0
LWPOLYLINE
5
122
100
AcDbEntity
8
0
100
AcDbPolyline
90
4
70
1
43
0.0
10
0.054126744309084818
20
0.12552368242537376
10
0.009999999999999943
20
0.12552368242537376
10
0.0099999999999999464
20
0.11552368242537377
10
0.054126744309084818
20
0.11552368242537377
0
LWPOLYLINE
5
123
100
AcDbEntity
8
0
100
AcDbPolyline
90
4
70
1
43
0.0
10
0.067924793587906138
20
0.17058861136692624
10
0.057924793587906136
20
0.17058861136692624
10
0.057924793587906136
20
0.15691781136692623
10
0.067924793587906138
20
0.15691781136692623
0
LWPOLYLINE
5
124
100
AcDbEntity
8
0
100
AcDbPolyline
90
7
70
1
43
0.0
10
0.095779945245754089
20
0.14999999999999999
10
0.085779945245754094
20
0.14999999999999999
10
0.085779945245754094
20
0.090279439626064009
10
0.059612815489604468
20
0.090279439626064009
10
0.059612815489604468
20
0.080279439626064
10
0.085779945245754094
20
0.080279439626064
10
0.095779945245754089
20
0.080279439626064
0
LWPOLYLINE
5
125
100
AcDbEntity
8
0
100
AcDbPolyline
90
4
70
1
43
0.0
10
0.050000000000000003
20
0.055357939770329524
10
0.040000000000000001
20
0.055357939770329524
10
0.040000000000000001
20
0.030557689050420826
10
0.050000000000000003
20
0.030557689050420826
0
LWPOLYLINE
5
126
100
AcDbEntity
8
0
100
AcDbPolyline
90
4
70
1
43
0.0
10
0.085779945245754094
20
0.040263814985186386
10
0.095779945245754089
20
0.040263814985186386
10
0.095779945245754089
20
0.065064065705095084
10
0.085779945245754094
20
0.065064065705095084
0
LWPOLYLINE
5
127
100
AcDbEntity
8
0
100
AcDbPolyline
90
4
70
1
43
0.0
10
0.1337980492788213
20
0.079155989049150832
10
0.12379804927882131
20
0.079155989049150832
10
0.12379804927882131
20
0.039155989049150824
10
0.1337980492788213
20
0.039155989049150824
0
LWPOLYLINE
5
128
100
AcDbEntity
8
0
100
AcDbPolyline
90
4
70
1
43
0.0
10
0.17000000000000001
20
0.080000000000000002
10
0.16
20
0.080000000000000002
10
0.16
20
0.040000000000000001
10
0.17000000000000001
20
0.040000000000000001
0
LWPOLYLINE
5
129
100
AcDbEntity
8
0
100
AcDbPolyline
90
4
70
1
43
0.0
10
0.20621698988834625
20
0.010000000000000002
10
0.19621698988834624
20
0.01
10
0.19621698988834624
20
0.10715904836432984
10
0.20621698988834625
20
0.10715904836432984
0
CIRCLE
5
130
100
AcDbEntity
8
0
100
AcDbCircle
10
0.18600771727623452
20
0.12040971587475011
30
0
40
0.0089999999999999993
210
0
220
0
230
1
0
LWPOLYLINE
5
131
100
AcDbEntity
8
0
100
AcDbPolyline
90
4
70
1
43
0.0
10
0.17000000000000001
20
0.13364213240916242
10
0.16
20
0.13364213240916242
10
0.16
20
0.11000491289269268
10
0.17000000000000001
20
0.11000491289269268
0
CIRCLE
5
132
100
AcDbEntity
8
0
100
AcDbCircle
10
0.14714588612924548
20
0.12144144590520112
30
0
40
0.0089999999999999993
210
0
220
0
230
1
0
LWPOLYLINE
5
133
100
AcDbEntity
8
0
100
AcDbPolyline
90
4
70
1
43
0.0
10
0.1337980492788213
20
0.1353252414181681
10
0.12379804927882131
20
0.1353252414181681
10
0.12379804927882131
20
0.11000491289269268
10
0.1337980492788213
20
0.11000491289269268
0
CIRCLE
5
134
100
AcDbEntity
8
0
100
AcDbCircle
10
0.22776436773694872
20
0.19077781146346276
30
0
40
0.0089999999999999993
210
0
220
0
230
1
0
LINE
5
135
100
AcDbEntity
8
0
100
AcDbLine
10
-5.8170722959499296e-17
20
0.25
30
0
11
0.009999999999999943
21
0.24000000000000007
31
0
0
LINE
5
136
100
AcDbEntity
8
0
100
AcDbLine
10
0.23999999999999994
20
0.24000000000000007
30
0
11
0.24999999999999994
21
0.25000000000000006
31
0
0
LINE
5
137
100
AcDbEntity
8
0
100
AcDbLine
10
0.23999999999999991
20
0.010000000000000009
30
0
11
0.24999999999999994
21
0
31
0
0
LINE
5
138
100
AcDbEntity
8
0
100
AcDbLine
10
0.009999999999999943
20
0.0099999999999999933
30
0
11
0
21
0
31
0
0
ENDSEC
0
SECTION
2
OBJECTS
0
DICTIONARY
5
C
100
AcDbDictionary
3
ACAD_GROUP
350
D
3
ACAD_MLINESTYLE
350
17
0
DICTIONARY
5
D
100
AcDbDictionary
0
DICTIONARY
5
1A
330
C
100
AcDbDictionary
0
DICTIONARY
5
17
100
AcDbDictionary
0
ENDSEC
0
EOF
